<mxfile host="app.diagrams.net" modified="2022-10-18T15:38:07.143Z" agent="5.0 (Macintosh)" etag="aFA1QUnlrFGnR4dt3oC5" version="20.3.6" type="github">
  <diagram id="R29aMpHS694Ucdykr4rr" name="Page-1">
    <mxGraphModel dx="1221" dy="1768" grid="1" gridSize="10" guides="1" tooltips="1" connect="1" arrows="1" fold="1" page="1" pageScale="1" pageWidth="850" pageHeight="1100" math="0" shadow="0">
      <root>
        <mxCell id="0" />
        <mxCell id="1" parent="0" />
        <mxCell id="BxCldO122E4UIg3jQf_D-3" value="" style="edgeStyle=orthogonalEdgeStyle;rounded=0;orthogonalLoop=1;jettySize=auto;html=1;" edge="1" parent="1" source="BxCldO122E4UIg3jQf_D-1" target="BxCldO122E4UIg3jQf_D-2">
          <mxGeometry relative="1" as="geometry" />
        </mxCell>
        <mxCell id="BxCldO122E4UIg3jQf_D-1" value="User" style="shape=umlActor;verticalLabelPosition=bottom;verticalAlign=top;html=1;outlineConnect=0;" vertex="1" parent="1">
          <mxGeometry x="50" y="230" width="30" height="60" as="geometry" />
        </mxCell>
        <mxCell id="BxCldO122E4UIg3jQf_D-5" value="" style="edgeStyle=orthogonalEdgeStyle;rounded=0;orthogonalLoop=1;jettySize=auto;html=1;" edge="1" parent="1" source="BxCldO122E4UIg3jQf_D-2" target="BxCldO122E4UIg3jQf_D-4">
          <mxGeometry relative="1" as="geometry" />
        </mxCell>
        <mxCell id="BxCldO122E4UIg3jQf_D-2" value="&lt;br&gt;&lt;div&gt;Ingin Membeli Tiket&lt;/div&gt;" style="whiteSpace=wrap;html=1;verticalAlign=top;" vertex="1" parent="1">
          <mxGeometry x="190" y="235" width="130" height="50" as="geometry" />
        </mxCell>
        <mxCell id="BxCldO122E4UIg3jQf_D-8" style="edgeStyle=orthogonalEdgeStyle;rounded=0;orthogonalLoop=1;jettySize=auto;html=1;" edge="1" parent="1" source="BxCldO122E4UIg3jQf_D-4">
          <mxGeometry relative="1" as="geometry">
            <mxPoint x="465" y="380" as="targetPoint" />
          </mxGeometry>
        </mxCell>
        <mxCell id="BxCldO122E4UIg3jQf_D-14" style="edgeStyle=orthogonalEdgeStyle;rounded=0;orthogonalLoop=1;jettySize=auto;html=1;" edge="1" parent="1" source="BxCldO122E4UIg3jQf_D-4">
          <mxGeometry relative="1" as="geometry">
            <mxPoint x="465" y="160" as="targetPoint" />
          </mxGeometry>
        </mxCell>
        <mxCell id="BxCldO122E4UIg3jQf_D-4" value="&lt;div&gt;Sudah&lt;/div&gt;&lt;div&gt;mendapatkan RegID ?&lt;br&gt;&lt;/div&gt;" style="ellipse;whiteSpace=wrap;html=1;verticalAlign=top;" vertex="1" parent="1">
          <mxGeometry x="405" y="230" width="120" height="60" as="geometry" />
        </mxCell>
        <mxCell id="BxCldO122E4UIg3jQf_D-11" style="edgeStyle=orthogonalEdgeStyle;rounded=0;orthogonalLoop=1;jettySize=auto;html=1;" edge="1" parent="1" source="BxCldO122E4UIg3jQf_D-9">
          <mxGeometry relative="1" as="geometry">
            <mxPoint x="465" y="550" as="targetPoint" />
          </mxGeometry>
        </mxCell>
        <mxCell id="BxCldO122E4UIg3jQf_D-9" value="&lt;div&gt;Lakukan Registrasi&lt;/div&gt;&lt;div&gt;di Laman web/mobile untuk mendapatkan Regid&lt;br&gt;&lt;/div&gt;" style="whiteSpace=wrap;html=1;" vertex="1" parent="1">
          <mxGeometry x="387.5" y="390" width="155" height="70" as="geometry" />
        </mxCell>
        <mxCell id="BxCldO122E4UIg3jQf_D-10" value="Belum" style="text;html=1;align=center;verticalAlign=middle;resizable=0;points=[];autosize=1;strokeColor=none;fillColor=none;" vertex="1" parent="1">
          <mxGeometry x="460" y="315" width="60" height="30" as="geometry" />
        </mxCell>
        <mxCell id="BxCldO122E4UIg3jQf_D-13" style="edgeStyle=orthogonalEdgeStyle;rounded=0;orthogonalLoop=1;jettySize=auto;html=1;" edge="1" parent="1" source="BxCldO122E4UIg3jQf_D-12" target="BxCldO122E4UIg3jQf_D-4">
          <mxGeometry relative="1" as="geometry">
            <mxPoint x="370" y="270" as="targetPoint" />
            <Array as="points">
              <mxPoint x="340" y="585" />
              <mxPoint x="340" y="270" />
            </Array>
          </mxGeometry>
        </mxCell>
        <mxCell id="BxCldO122E4UIg3jQf_D-12" value="Selesai, balik ke atas" style="rounded=1;whiteSpace=wrap;html=1;" vertex="1" parent="1">
          <mxGeometry x="405" y="560" width="120" height="50" as="geometry" />
        </mxCell>
        <mxCell id="BxCldO122E4UIg3jQf_D-15" value="&lt;div&gt;Sudah&lt;/div&gt;" style="text;html=1;align=center;verticalAlign=middle;resizable=0;points=[];autosize=1;strokeColor=none;fillColor=none;" vertex="1" parent="1">
          <mxGeometry x="470" y="175" width="60" height="30" as="geometry" />
        </mxCell>
        <mxCell id="BxCldO122E4UIg3jQf_D-17" style="edgeStyle=orthogonalEdgeStyle;rounded=0;orthogonalLoop=1;jettySize=auto;html=1;" edge="1" parent="1" source="BxCldO122E4UIg3jQf_D-16">
          <mxGeometry relative="1" as="geometry">
            <mxPoint x="465" y="40" as="targetPoint" />
          </mxGeometry>
        </mxCell>
        <mxCell id="BxCldO122E4UIg3jQf_D-16" value="Daftar dengan beberapa data yang dibutuhkan" style="whiteSpace=wrap;html=1;" vertex="1" parent="1">
          <mxGeometry x="405" y="90" width="120" height="60" as="geometry" />
        </mxCell>
        <mxCell id="BxCldO122E4UIg3jQf_D-20" style="edgeStyle=orthogonalEdgeStyle;rounded=0;orthogonalLoop=1;jettySize=auto;html=1;" edge="1" parent="1" source="BxCldO122E4UIg3jQf_D-19">
          <mxGeometry relative="1" as="geometry">
            <mxPoint x="465" y="-100" as="targetPoint" />
          </mxGeometry>
        </mxCell>
        <mxCell id="BxCldO122E4UIg3jQf_D-19" value="Melakukan Pembayaran" style="rounded=1;whiteSpace=wrap;html=1;" vertex="1" parent="1">
          <mxGeometry x="405" y="-30" width="120" height="60" as="geometry" />
        </mxCell>
        <mxCell id="BxCldO122E4UIg3jQf_D-23" style="edgeStyle=orthogonalEdgeStyle;rounded=0;orthogonalLoop=1;jettySize=auto;html=1;" edge="1" parent="1" source="BxCldO122E4UIg3jQf_D-22">
          <mxGeometry relative="1" as="geometry">
            <mxPoint x="690" y="220" as="targetPoint" />
            <Array as="points">
              <mxPoint x="608" y="-140" />
              <mxPoint x="608" y="-160" />
              <mxPoint x="690" y="-160" />
            </Array>
          </mxGeometry>
        </mxCell>
        <mxCell id="BxCldO122E4UIg3jQf_D-22" value="Dapat barcode" style="whiteSpace=wrap;html=1;" vertex="1" parent="1">
          <mxGeometry x="405" y="-170" width="120" height="60" as="geometry" />
        </mxCell>
        <mxCell id="BxCldO122E4UIg3jQf_D-24" value="Ketika ingin Memasuki scan barcode" style="whiteSpace=wrap;html=1;" vertex="1" parent="1">
          <mxGeometry x="630" y="235" width="120" height="60" as="geometry" />
        </mxCell>
        <mxCell id="BxCldO122E4UIg3jQf_D-25" value="" style="shape=cylinder3;whiteSpace=wrap;html=1;boundedLbl=1;backgroundOutline=1;size=15;" vertex="1" parent="1">
          <mxGeometry x="50" y="590" width="60" height="80" as="geometry" />
        </mxCell>
        <mxCell id="BxCldO122E4UIg3jQf_D-26" value="RDBMS" style="text;html=1;align=center;verticalAlign=middle;resizable=0;points=[];autosize=1;strokeColor=none;fillColor=none;" vertex="1" parent="1">
          <mxGeometry x="45" y="630" width="70" height="30" as="geometry" />
        </mxCell>
        <mxCell id="BxCldO122E4UIg3jQf_D-27" value="&lt;div style=&quot;font-size: 15px;&quot; align=&quot;left&quot;&gt;&lt;font style=&quot;font-size: 15px;&quot;&gt;Users : &lt;br&gt;&lt;/font&gt;&lt;/div&gt;&lt;div style=&quot;font-size: 15px;&quot; align=&quot;left&quot;&gt;&lt;font style=&quot;font-size: 15px;&quot;&gt;Nama : STRING&lt;/font&gt;&lt;/div&gt;&lt;div style=&quot;font-size: 15px;&quot; align=&quot;left&quot;&gt;&lt;font style=&quot;font-size: 15px;&quot;&gt;Umur : INT&lt;/font&gt;&lt;/div&gt;&lt;div style=&quot;font-size: 15px;&quot; align=&quot;left&quot;&gt;&lt;font style=&quot;font-size: 15px;&quot;&gt;Alamat_Rumah : STRING&lt;/font&gt;&lt;/div&gt;&lt;div style=&quot;font-size: 15px;&quot; align=&quot;left&quot;&gt;&lt;font style=&quot;font-size: 15px;&quot;&gt;Peraturan_pertama : INT -&amp;gt; 1 / Iya // 2 / Tidak&lt;br&gt;&lt;/font&gt;&lt;/div&gt;&lt;div style=&quot;font-size: 15px;&quot; align=&quot;left&quot;&gt;&lt;font style=&quot;font-size: 15px;&quot;&gt;Peraturan_kedua : INT -&amp;gt; 1 / Iya // 2 / Tidak&lt;/font&gt;&lt;/div&gt;&lt;div style=&quot;font-size: 15px;&quot; align=&quot;left&quot;&gt;&lt;font style=&quot;font-size: 15px;&quot;&gt;Image : STRING&lt;br&gt;&lt;/font&gt;&lt;/div&gt;" style="text;html=1;align=left;verticalAlign=middle;resizable=0;points=[];autosize=1;strokeColor=none;fillColor=none;" vertex="1" parent="1">
          <mxGeometry x="30" y="680" width="330" height="140" as="geometry" />
        </mxCell>
      </root>
    </mxGraphModel>
  </diagram>
</mxfile>
